<?xml version="1.0" encoding="UTF-8"?>
<svg width="17px" height="12px" viewBox="0 0 17 12" version="1.1" xmlns="http://www.w3.org/2000/svg" xmlns:xlink="http://www.w3.org/1999/xlink">
    <!-- Generator: Sketch 55.2 (78181) - https://sketchapp.com -->
    <title></title>
    <desc>Created with Sketch.</desc>
    <g id="Symbols" stroke="none" stroke-width="1" fill="none" fill-rule="evenodd">
        <g id="Live-menu" transform="translate(-323.000000, -20.000000)" fill="#FFFFFF" fill-rule="nonzero">
            <g id="Menu" transform="translate(7.000000, 3.000000)">
                <g id="App_Users-Copy-27" transform="translate(309.000000, 8.000000)">
                    <path d="M23.1197374,10.4773352 L23.1197374,19.9347527 C23.1197374,20.1781434 23.0065267,20.3490938 22.7801018,20.447609 C22.7046268,20.4765841 22.6320558,20.4910714 22.5623866,20.4910714 C22.4056309,20.4910714 22.2750031,20.4360196 22.1704993,20.3259143 L18.6609309,16.8228451 L18.6609309,18.2657967 C18.6609309,18.9554035 18.4156409,19.5450375 17.9250537,20.0347163 C17.4344664,20.524395 16.8437385,20.7692308 16.1528522,20.7692308 L10.0219933,20.7692308 C9.33110708,20.7692308 8.74037918,20.524395 8.2497919,20.0347163 C7.75920462,19.5450375 7.51391466,18.9554035 7.51391466,18.2657967 L7.51391466,12.1462912 C7.51391466,11.4566844 7.75920462,10.8670504 8.2497919,10.3773717 C8.74037918,9.88769286 9.33110708,9.64285714 10.0219933,9.64285714 L16.1528522,9.64285714 C16.8437385,9.64285714 17.4344664,9.88769286 17.9250537,10.3773717 C18.4156409,10.8670504 18.6609309,11.4566844 18.6609309,12.1462912 L18.6609309,13.5805503 L22.1704993,10.0861736 C22.2750031,9.9760683 22.4056309,9.92101648 22.5623866,9.92101648 C22.6320558,9.92101648 22.7046268,9.9355038 22.7801018,9.96447888 C23.0065267,10.0629941 23.1197374,10.2339445 23.1197374,10.4773352 Z" id=""></path>
                </g>
            </g>
        </g>
    </g>
</svg>