<?xml version="1.0" encoding="UTF-8"?>
<svg width="27px" height="26px" viewBox="0 0 27 26" version="1.1" xmlns="http://www.w3.org/2000/svg" xmlns:xlink="http://www.w3.org/1999/xlink">
    <!-- Generator: Sketch 55.2 (78181) - https://sketchapp.com -->
    <title>Combined Shape</title>
    <desc>Created with Sketch.</desc>
    <g id="Page-1" stroke="none" stroke-width="1" fill="none" fill-rule="evenodd">
        <g id="Elementer" transform="translate(-218.000000, -435.000000)" fill="#FFFFFF" fill-rule="nonzero">
            <g id="Group-4" transform="translate(50.000000, 86.000000)">
                <g id="App_Users-Copy-31" transform="translate(157.000000, 335.000000)">
                    <path d="M31.4285714,21.8998557 L31.4285714,23.3856027 L36.6010045,18.2260045 C36.7550231,18.0634292 36.9475435,17.9821429 37.1785714,17.9821429 C37.2812505,17.9821429 37.3882063,18.003534 37.499442,18.046317 C37.833149,18.191779 38,18.4441946 38,18.8035714 L38,32.7678571 C38,33.1272339 37.833149,33.3796496 37.499442,33.5251116 C37.3882063,33.5678946 37.2812505,33.5892857 37.1785714,33.5892857 C36.9475435,33.5892857 36.7550231,33.5079993 36.6010045,33.3454241 L31.4285714,28.1729911 L31.4285714,30.3035714 C31.4285714,31.3218057 31.0670609,32.1924257 30.344029,32.9154576 C29.6209971,33.6384895 28.7503771,34 27.7321429,34 L19.3284271,34 L14.3327381,38.995689 C13.9422138,39.3862133 13.3090488,39.3862133 12.9185245,38.995689 L12.2114178,38.2885822 C11.8208935,37.8980579 11.8208935,37.264893 12.2114178,36.8743687 L34.131728,14.9540585 C34.5222523,14.5635342 35.1554173,14.5635342 35.5459415,14.9540585 L36.2530483,15.6611652 C36.6435726,16.0516895 36.6435726,16.6848545 36.2530483,17.0753788 L31.4285714,21.8998557 Z M15.035672,30.8430077 C15.0118906,30.6680507 15,30.4882387 15,30.3035714 L15,21.2678571 C15,20.2496229 15.3615105,19.3790029 16.0845424,18.655971 C16.8075743,17.9329391 17.6781943,17.5714286 18.6964286,17.5714286 L27.7321429,17.5714286 C27.9168101,17.5714286 28.0966222,17.5833192 28.2715791,17.6071006 L15.035672,30.8430077 Z" id="Combined-Shape"></path>
                </g>
            </g>
        </g>
    </g>
</svg>